# Blender v3.5.1 OBJ File: 'map.blend'
# www.blender.org
mtllib 12_00x1200_OSB_1__192425_.mtl
o 12_00x1200_OSB_1__192425__temp_12_00x1200_OSB_1__192425_.012
v 1.147087 -0.299597 0.599999
v -1.143224 0.314090 0.599999
v -1.147105 0.299602 0.599999
v 1.143202 -0.314085 0.599999
v 1.143202 -0.314085 -0.599999
v -1.147105 0.299602 -0.599999
v -1.143224 0.314090 -0.599999
v 1.147087 -0.299597 -0.599999
vt 7.779200 0.059700
vt 0.000000 0.059700
vt 0.000000 0.000000
vt 7.779200 -0.000000
vt -7.779200 4.776700
vt -7.779200 0.000000
vt 0.000000 4.776700
vt 0.000000 0.000000
vt 0.000000 0.059700
vt -7.779200 0.059700
vt -7.779200 0.000000
vt -3.937000 0.059700
vt -3.937000 -0.000000
vt 0.000000 0.000000
vt 7.779200 -0.000000
vt 7.779200 4.776700
vt 0.000000 4.776700
vt 3.937000 0.000000
vt 3.937000 0.059700
vt 0.000000 0.059700
vt 0.000000 0.000000
vn 0.0000 0.0000 1.0000
vn -0.0000 -1.0000 0.0000
vn 0.0000 0.0000 -1.0000
vn -1.0000 -0.0000 -0.0000
vn 0.0000 1.0000 -0.0000
vn 1.0000 0.0000 0.0000
usemtl Dark_OSB.002
s 1
f 1/1/1 2/2/1 3/3/1 4/4/1
f 5/5/2 4/6/2 3/3/2 6/7/2
f 6/8/3 7/9/3 8/10/3 5/11/3
f 2/2/4 7/12/4 6/13/4 3/3/4
f 2/14/5 1/15/5 8/16/5 7/17/5
f 5/18/6 8/19/6 1/20/6 4/21/6
