# Blender v3.5.1 OBJ File: 'map.blend'
# www.blender.org
mtllib 450mm_hurdle_retainer__231166_.mtl
o 450mm_hurdle_retainer__231166__temp_450mm_hurdle_retainer__231166_.004
v 0.025000 -0.225001 -0.050000
v 0.025000 -0.225001 0.050000
v -0.025000 -0.225001 0.050000
v -0.025000 -0.225001 -0.050000
v -0.025000 0.225001 -0.050000
v 0.025000 0.225001 -0.050000
v 0.025000 0.225001 0.050000
v -0.025000 0.225001 0.050000
vt -0.198900 1.828700
vt -0.198900 1.746700
vt -0.182500 1.746700
vt -0.182500 1.828700
vt -0.182500 0.602900
vt -0.198900 0.602900
vt -0.198900 0.233800
vt -0.182500 0.233800
vt 0.198900 1.746700
vt 0.198900 1.828700
vt 0.182500 1.828700
vt 0.182500 1.746700
vt -0.731500 0.602900
vt -0.731500 0.233800
vt -0.698700 0.233800
vt -0.698700 0.602900
vt 0.198900 0.602900
vt 0.182500 0.602900
vt 0.182500 0.233800
vt 0.198900 0.233800
vt 0.731500 0.233800
vt 0.731500 0.602900
vt 0.698700 0.602900
vt 0.698700 0.233800
vn 0.0000 -1.0000 0.0000
vn 0.0000 -0.0000 -1.0000
vn 0.0000 1.0000 0.0000
vn -1.0000 0.0000 0.0000
vn 0.0000 0.0000 1.0000
vn 1.0000 0.0000 0.0000
usemtl Wood_Floor_Light.002
s 1
f 1/1/1 2/2/1 3/3/1 4/4/1
f 5/5/2 6/6/2 1/7/2 4/8/2
f 7/9/3 6/10/3 5/11/3 8/12/3
f 5/13/4 4/14/4 3/15/4 8/16/4
f 7/17/5 8/18/5 3/19/5 2/20/5
f 1/21/6 6/22/6 7/23/6 2/24/6
