# Blender v3.5.1 OBJ File: 'map.blend'
# www.blender.org
mtllib Component_247__131299_.mtl
o Component_247__131299__temp_Component_247__131299_.080
v 0.050000 -0.135001 -0.050001
v 0.050000 0.135001 -0.050001
v 0.050000 0.135001 0.050001
v 0.050000 -0.135001 0.050001
v -0.050000 0.135001 0.050001
v -0.050000 -0.135001 0.050001
v -0.050000 0.135001 -0.050001
v -0.050000 -0.135001 -0.050001
vt 3.937000 0.000000
vt 3.937000 10.629900
vt 0.000000 10.629900
vt 0.000000 0.000000
vt 3.937000 10.629900
vt 0.000000 10.629900
vt 0.000000 0.000000
vt 3.937000 0.000000
vt -3.937000 10.629900
vt -3.937000 0.000000
vt 3.937000 0.000000
vt 3.937000 3.937000
vt 0.000000 3.937000
vt 0.000000 0.000000
vt 0.000000 10.629900
vt -3.937000 10.629900
vt -3.937000 0.000000
vt 0.000000 0.000000
vt -3.937000 3.937000
vt -3.937000 0.000000
vt 0.000000 3.937000
vn 1.0000 -0.0000 0.0000
vn 0.0000 0.0000 1.0000
vn -1.0000 -0.0000 0.0000
vn 0.0000 1.0000 0.0000
vn 0.0000 -0.0000 -1.0000
vn 0.0000 -1.0000 0.0000
usemtl _14.002
s 1
f 1/1/1 2/2/1 3/3/1 4/4/1
f 3/5/2 5/6/2 6/7/2 4/8/2
f 7/9/3 8/10/3 6/7/3 5/6/3
f 3/11/4 2/12/4 7/13/4 5/14/4
f 7/15/5 2/16/5 1/17/5 8/18/5
f 1/19/6 4/20/6 6/7/6 8/21/6
