# Blender v3.5.1 OBJ File: 'map.blend'
# www.blender.org
mtllib Component_2__225782_.mtl
o Component_2__225782__temp_Component_2__225782_.008
v 0.278935 0.022978 -0.309976
v 0.253055 0.119569 -0.309976
v 0.253055 0.119569 -0.239264
v 0.278935 0.022978 -0.239264
v -0.286474 -0.128523 0.275378
v -0.312356 -0.031932 0.275378
v -0.244053 -0.013631 0.275378
v -0.218173 -0.110223 0.275378
vt 0.412000 -2.313400
vt 0.435200 -2.255400
vt 0.418800 -2.214400
vt 0.395600 -2.272400
vt -1.257200 -0.000000
vt -1.257200 0.082000
vt -1.528800 0.082000
vt -1.528800 -0.000000
vt -0.716000 0.622600
vt -0.732400 0.663600
vt -0.755600 0.605600
vt -0.739200 0.564600
vt -1.528800 4.303700
vt -1.512400 4.262700
vt -1.273600 4.262700
vt -1.257200 4.303700
vt 1.512400 0.000000
vt 1.512400 0.082000
vt 1.273600 0.082000
vt 1.273600 0.000000
vt 1.273600 4.262700
vt 1.512400 4.262700
vt 1.528800 4.303700
vt 1.257200 4.303700
vn 0.7071 -0.0000 0.7071
vn 0.0000 0.0000 -1.0000
vn 0.0001 -0.0003 -1.0000
vn -0.7071 -0.0000 0.7071
vn 0.0000 -1.0000 -0.0000
vn 0.0000 -0.0000 1.0000
vn -0.0000 1.0000 -0.0000
usemtl Wood_Floor_Light.002
s 1
f 1/1/1 2/2/1 3/3/1 4/4/1
f 5/5/2 6/6/2 2/7/2 1/8/3
f 7/9/4 6/10/4 5/11/4 8/12/4
f 1/13/5 4/14/5 8/15/5 5/16/5
f 4/17/6 3/18/6 7/19/6 8/20/6
f 7/21/7 3/22/7 2/23/7 6/24/7
