# Blender v3.5.1 OBJ File: 'map.blend'
# www.blender.org
mtllib Group_75.mtl
o Group_75__144699__temp_Group_75__144699_.004
v -0.002948 0.058333 -0.073658
v 0.032409 0.058333 -0.038301
v 0.103120 -0.041667 0.032410
v -0.002948 -0.041667 -0.073658
v -0.073656 -0.041667 -0.002947
v -0.073656 0.058333 -0.002947
v -0.038302 -0.041667 0.032410
v -0.038302 0.058333 0.032410
v 0.032409 -0.041667 0.103119
vt 2.280700 0.909500
vt 4.249200 0.909500
vt 8.186200 4.846500
vt 2.280700 4.846500
vt -4.846500 3.937000
vt -4.846500 -0.000000
vt -0.909500 0.000000
vt -0.909500 3.937000
vt -4.249200 4.846500
vt -4.249200 0.909500
vt -2.280700 0.909500
vt -2.280700 4.846500
vt -8.186200 4.846500
vt -2.280700 3.937000
vt -8.186200 3.937000
vt -4.249200 0.000000
vt -2.280700 -0.000000
vt -8.186200 -0.000000
vt 9.215600 3.937000
vt 3.647800 3.937000
vt 3.647800 0.000000
vt 9.215600 -0.000000
vt 4.249200 3.937000
vt 2.280700 3.937000
vt 2.280700 0.000000
vt 4.249200 0.000000
vn -0.0000 -0.0000 -1.0000
vn -1.0000 0.0000 -0.0000
vn 0.0000 0.0000 1.0000
vn 0.0000 -0.0004 1.0000
vn 0.0000 -1.0000 0.0000
vn 0.7071 0.7071 -0.0000
vn 0.0000 1.0000 0.0000
usemtl Color_M07.002
s 1
f 1/1/1 2/2/1 3/3/1 4/4/1
f 4/5/2 5/6/2 6/7/2 1/8/2
f 7/9/3 8/10/4 6/11/3 5/12/3
f 8/10/4 7/9/3 9/13/3
f 4/14/5 3/15/5 7/16/5 5/17/5
f 7/16/5 3/15/5 9/18/5
f 3/19/6 2/20/6 8/21/6 9/22/6
f 2/23/7 1/24/7 6/25/7 8/26/7
