# Blender v3.5.1 OBJ File: 'map.blend'
# www.blender.org
mtllib K_rail_rail__189915_.mtl
o K_rail_rail__189915__temp_K_rail_rail__189915_.016
v 0.491733 -0.050000 -0.561305
v 0.543536 -0.050000 -0.471684
v -0.463244 -0.050000 0.535093
v -0.604663 -0.050000 0.535093
v 0.543534 -0.050000 -0.561305
v 0.543536 -0.050000 -0.542395
v 0.543536 0.050000 -0.542395
v 0.543536 0.050000 -0.471684
v -0.463244 0.050000 0.535093
v 0.495334 0.050000 -0.564908
v -0.604663 0.050000 0.535093
v 0.543536 0.050000 -0.564908
v 0.495334 0.035001 -0.564908
v 0.543536 0.035001 -0.564908
v 0.543536 -0.050000 -0.564908
v 0.495334 -0.050000 -0.564908
vt -0.769600 -4.138800
vt -0.760800 -4.220800
vt -0.293700 -4.220800
vt -0.260900 -4.138800
vt -0.781600 -4.168800
vt -0.777200 -4.179800
vt 0.047100 -4.126200
vt 0.070300 -4.068200
vt 0.053900 -4.027200
vt 0.030700 -4.085200
vt 0.293700 -4.220800
vt 0.760800 -4.220800
vt 0.771300 -4.138800
vt 0.260900 -4.138800
vt 0.777200 -4.179800
vt 0.782500 -4.166700
vt -1.019600 -1.356800
vt -1.030700 -1.328900
vt -1.050500 -1.378100
vt -1.039300 -1.406100
vt -1.016100 -1.348100
vt -1.027300 -1.320200
vt 0.804800 -4.226800
vt 0.800400 -4.237800
vt 0.805700 -4.224700
vt 0.785900 -4.175400
vt -63.214001 3.937000
vt -64.555801 2.595200
vt -64.455498 2.494900
vt -63.013500 3.937000
vt 0.771300 -4.056800
vt 0.769600 -4.056800
vt 0.260900 -4.056800
vt 0.771300 -4.126500
vt 0.212500 -4.423800
vt 0.179700 -4.341800
vt 0.156500 -4.399800
vt 0.189300 -4.481800
vt 0.760800 -0.000000
vt 0.760800 0.082000
vt 0.293700 0.082000
vt 0.293700 -0.000000
vn -0.0000 -1.0000 0.0000
vn 0.7071 0.0003 0.7071
vn 0.7071 -0.0000 0.7071
vn 0.7071 0.0002 0.7071
vn 0.0000 1.0000 -0.0000
vn 0.7071 -0.0000 -0.7071
vn 0.7071 0.0002 -0.7071
vn 0.0000 -0.0000 -1.0000
vn 0.0000 0.0002 -1.0000
vn -0.7071 0.0000 0.7071
vn -0.7071 0.0002 0.7071
vn 0.0000 0.0000 1.0000
usemtl wire_128128128.002
s 1
f 1/1/1 2/2/1 3/3/1 4/4/1
f 2/2/1 1/1/1 5/5/1 6/6/1
f 6/7/2 7/8/3 8/9/3 2/10/4
f 9/11/5 8/12/5 10/13/5 11/14/5
f 10/13/5 8/12/5 7/15/5 12/16/5
f 13/17/6 14/18/6 15/19/7 16/20/6
f 14/18/6 13/17/6 10/21/6 12/22/6
f 5/23/3 12/16/3 7/15/3 6/24/2
f 12/16/3 5/23/3 15/25/3
f 12/16/3 15/25/3 14/26/6
f 16/27/1 15/28/1 5/29/1 1/30/1
f 11/14/8 16/31/9 1/32/8 4/33/8
f 16/31/9 11/14/8 10/13/8 13/34/8
f 9/35/10 11/36/10 4/37/11 3/38/10
f 2/39/12 8/40/12 9/41/12 3/42/12
