# Blender v3.5.1 OBJ File: 'map.blend'
# www.blender.org
mtllib Obstructed1A.mtl
o Obstructed1A__188150__temp_Obstructed1A__188150_.004
v 0.146732 -0.057239 0.057237
v 0.154466 0.013261 -0.013263
v 0.181403 -0.008989 0.008987
v 0.178200 -0.038192 0.038190
v 0.105436 -0.054973 0.054971
v 0.113168 0.015527 -0.015526
v 0.078500 -0.032723 0.032721
v 0.081703 -0.003521 0.003519
vt 0.261700 10.785600
vt 0.261700 10.964600
vt 0.207400 10.912200
vt 0.207400 10.838000
vt 0.338500 10.785600
vt 0.338500 10.964600
vt 0.392700 10.838000
vt 0.392700 10.912200
vn -0.0000 -0.0000 -1.0000
usemtl ObstructedScenario.004
s 1
f 1/1/1 2/2/1 3/3/1 4/4/1
f 2/2/1 1/1/1 5/5/1 6/6/1
f 6/6/1 5/5/1 7/7/1 8/8/1
