# Blender v3.5.1 OBJ File: 'map.blend'
# www.blender.org
mtllib Obstructed4A.mtl
o Obstructed4A__188097__temp_Obstructed4A__188097_.004
v -0.058852 0.044393 0.044389
v -0.058092 -0.026319 -0.026320
v -0.087602 -0.005766 -0.005766
v -0.087917 0.023524 0.023523
v -0.017432 0.044613 0.044612
v -0.016672 -0.026096 -0.026096
v 0.012080 0.024059 0.024061
v 0.012395 -0.005226 -0.005228
vt 0.461500 10.535400
vt 0.461500 10.714300
vt 0.407200 10.661900
vt 0.407200 10.587800
vt 0.538200 10.535400
vt 0.538200 10.714300
vt 0.592500 10.587800
vt 0.592500 10.661900
vn -0.0000 -0.0000 -1.0000
vn -0.0001 -0.0000 -1.0000
vn 0.0054 0.0000 -1.0000
usemtl ObstructedScenario.004
s 1
f 1/1/1 2/2/1 3/3/2 4/4/1
f 2/2/1 1/1/1 5/5/1 6/6/1
f 6/6/1 5/5/1 7/7/3 8/8/1
