# File produced by Open Asset Import Library (http://www.assimp.sf.net)
# (assimp v4.1.3154142419)

mtllib seat_pad.mtl

# 8 vertex positions
v  0.005000025033950806 -0.1500000357627869 -0.1500000059604645
v  0.005000025033950806 -0.1500000357627869 0.1500000357627869
v  -0.00499996542930603 -0.1500000357627869 -0.1500000059604645
v  -0.00499996542930603 -0.1500000357627869 0.1500000357627869
v  0.00499996542930603 0.1500000059604645 -0.1500000357627869
v  -0.005000025033950806 0.1500000059604645 -0.1500000357627869
v  0.004999987781047821 0.1500000357627869 0.1500000357627869
v  -0.005000017583370209 0.1500000357627869 0.1500000059604645

# 0 UV coordinates

# 6 vertex normals
vn 1.192092895507812e-07 -1.00000011920929 0
vn 0 0 -1
vn -1.192092895507812e-07 1.00000011920929 0
vn 0 -2.980232238769531e-08 1
vn 1 1.192092895507812e-07 -2.980232594040899e-08
vn -0.9999999403953552 -1.192092895507812e-07 -5.960464477539062e-08

# Mesh '' with 12 faces
usemtl $Material_0
f  1//1 2//1 3//1
f  3//1 2//1 4//1
f  5//2 1//2 6//2
f  6//2 1//2 3//2
f  7//3 5//3 8//3
f  8//3 5//3 6//3
f  2//4 7//4 4//4
f  4//4 7//4 8//4
f  5//5 7//5 1//5
f  1//5 7//5 2//5
f  8//6 6//6 4//6
f  4//6 6//6 3//6

