# File produced by Open Asset Import Library (http://www.assimp.sf.net)
# (assimp v4.1.3154142419)

mtllib solid_wood_block.mtl

# 8 vertex positions
v  0.05100000277161598 -0.05100000277161598 0.05100000277161598
v  0.05100000277161598 -0.05100000277161598 -0.05100000277161598
v  0.05100000277161598 0.05100000277161598 0.05100000277161598
v  0.05100000277161598 0.05100000277161598 -0.05100000277161598
v  -0.05100000277161598 -0.05100000277161598 0.05100000277161598
v  -0.05100000277161598 0.05100000277161598 0.05100000277161598
v  -0.05100000277161598 -0.05100000277161598 -0.05100000277161598
v  -0.05100000277161598 0.05100000277161598 -0.05100000277161598

# 23 UV coordinates
vt -1.156330108642578e-05 1.66197657585144 0
vt -1.186132431030273e-05 -0.661967396736145 0
vt 0.999988317489624 1.66197657585144 0
vt 0.999988317489624 -0.6619670391082764 0
vt -2.205371856689453e-06 -0.6619986295700073 0
vt 0.9999976754188538 -0.6619986295700073 0
vt -2.205371856689453e-06 1.661944985389709 0
vt 0.9999977946281433 1.661944627761841 0
vt -1.156330108642578e-05 -0.661967396736145 0
vt -1.156330108642578e-05 1.661975860595703 0
vt 0.999988317489624 -0.661967396736145 0
vt 0.9999884366989136 1.66197657585144 0
vt 0.9999979734420776 -0.6619993448257446 0
vt -2.026557922363281e-06 -0.6619986295700073 0
vt 0.9999979734420776 1.661944627761841 0
vt -2.026557922363281e-06 1.661944627761841 0
vt 1.9073486328125e-06 -0.6619765758514404 0
vt 1.000002026557922 -0.6619769334793091 0
vt 2.056360244750977e-06 1.661967039108276 0
vt 1.000002026557922 1.661966681480408 0
vt 1.9073486328125e-06 1.661967039108276 0
vt 1.000002026557922 1.661966443061829 0
vt 1.000001668930054 -0.6619769334793091 0

# 6 vertex normals
vn 1 0 0
vn 0 -1.387778780781446e-17 1
vn -1 0 0
vn 0 1.387778780781446e-17 -1
vn 0 1 1.387778780781446e-17
vn 0 -1 -1.387778780781446e-17

# Mesh '' with 12 faces
usemtl $Material_0
f  1/1/1 2/2/1 3/3/1
f  3/3/1 2/2/1 4/4/1
f  5/5/2 1/6/2 6/7/2
f  6/7/2 1/6/2 3/8/2
f  7/9/3 5/10/3 8/11/3
f  8/11/3 5/10/3 6/12/3
f  2/13/4 7/14/4 4/15/4
f  4/15/4 7/14/4 8/16/4
f  8/17/5 6/18/5 4/19/5
f  4/19/5 6/18/5 3/20/5
f  2/21/6 1/22/6 7/17/6
f  7/17/6 1/22/6 5/23/6

